<svg width="19" height="15" viewBox="0 0 19 15" fill="none" xmlns="http://www.w3.org/2000/svg">
<path d="M18.4658 1.77679C17.9515 2.54166 17.3207 3.19368 16.5732 3.73284C16.5806 3.87744 16.5842 4.04087 16.5842 4.22314C16.5842 5.23587 16.4366 6.24982 16.1413 7.265C15.846 8.28019 15.3949 9.25191 14.7881 10.1801C14.1812 11.1084 13.4583 11.9307 12.6195 12.6472C11.7806 13.3636 10.7722 13.9349 9.59431 14.3609C8.41643 14.787 7.15406 15 5.8072 15C3.7052 15 1.76947 14.4325 0 13.2976C0.31406 13.3326 0.615269 13.35 0.903629 13.35C2.65968 13.35 4.22811 12.8091 5.60893 11.7274C4.79016 11.7124 4.05689 11.4603 3.40912 10.9712C2.76135 10.4822 2.31557 9.85724 2.07178 9.09643C2.31275 9.14233 2.55058 9.16528 2.78527 9.16528C3.12309 9.16528 3.4555 9.12122 3.7825 9.0331C2.90872 8.8581 2.18385 8.4229 1.60788 7.7275C1.03193 7.03211 0.743954 6.22949 0.743954 5.31965V5.27277C1.28028 5.56972 1.85236 5.72768 2.46019 5.74664C1.94257 5.40156 1.53218 4.95157 1.22901 4.39666C0.925819 3.84175 0.774224 3.24124 0.774224 2.59513C0.774224 1.9137 0.944979 1.27916 1.28649 0.691514C2.23671 1.85758 3.3881 2.78954 4.74066 3.48739C6.09323 4.18525 7.54429 4.57282 9.09383 4.6501C9.02774 4.37467 8.99464 4.08725 8.99452 3.78783C8.99452 2.74237 9.36449 1.8497 10.1044 1.10982C10.8444 0.36994 11.7371 0 12.7825 0C13.8771 0 14.7991 0.398555 15.5484 1.19566C16.4046 1.02607 17.2063 0.719329 17.9534 0.27543C17.6656 1.18133 17.1109 1.88017 16.2894 2.37195C17.0444 2.28223 17.7699 2.08384 18.4657 1.77679H18.4658Z" fill="white"/>
</svg>
