<svg width="15" height="20" viewBox="0 0 15 20" fill="none" xmlns="http://www.w3.org/2000/svg">
<path d="M13.125 4H11.25C11.25 1.79 9.57187 0 7.5 0C5.42812 0 3.75 1.79 3.75 4H1.875C0.84375 4 0 4.9 0 6V18C0 19.1 0.84375 20 1.875 20H13.125C14.1562 20 15 19.1 15 18V6C15 4.9 14.1562 4 13.125 4ZM7.5 2C8.53125 2 9.375 2.9 9.375 4H5.625C5.625 2.9 6.46875 2 7.5 2ZM13.125 18H1.875V6H3.75V8C3.75 8.55 4.17188 9 4.6875 9C5.20312 9 5.625 8.55 5.625 8V6H9.375V8C9.375 8.55 9.79688 9 10.3125 9C10.8281 9 11.25 8.55 11.25 8V6H13.125V18Z" fill="white"/>
</svg>
