<svg width="19" height="20" viewBox="0 0 19 20" fill="none" xmlns="http://www.w3.org/2000/svg">
<path d="M0 10C0 11.8378 1.49556 13.3333 3.33333 13.3333C4.21556 13.3333 5.01333 12.9833 5.61 12.4222L12.2667 16.2267C12.2467 16.3711 12.2222 16.5156 12.2222 16.6667C12.2222 18.5044 13.7178 20 15.5556 20C17.3933 20 18.8889 18.5044 18.8889 16.6667C18.8889 14.8289 17.3933 13.3333 15.5556 13.3333C14.6733 13.3333 13.8756 13.6833 13.2789 14.2444L6.62222 10.4411C6.64222 10.2956 6.66667 10.1511 6.66667 10C6.66667 9.84889 6.64222 9.70444 6.62222 9.55889L13.2789 5.75556C13.8756 6.31667 14.6733 6.66667 15.5556 6.66667C17.3933 6.66667 18.8889 5.17111 18.8889 3.33333C18.8889 1.49556 17.3933 0 15.5556 0C13.7178 0 12.2222 1.49556 12.2222 3.33333C12.2222 3.48444 12.2467 3.62889 12.2667 3.77444L5.61 7.57778C4.99556 6.99409 4.18082 6.66803 3.33333 6.66667C1.49556 6.66667 0 8.16222 0 10Z" fill="white"/>
</svg>
