<svg width="20" height="20" viewBox="0 0 20 20" fill="none" xmlns="http://www.w3.org/2000/svg">
<path d="M14.9909 0H4.99466C2.24063 0 0 2.23309 0 4.97787V15.0221C0 17.7667 2.24063 20 4.99466 20H14.9909C17.7449 20 19.9855 17.7666 19.9855 15.0221V4.97785C19.9855 2.23309 17.7449 2.00425e-05 14.9909 2.00425e-05V0ZM18.1357 15.022C18.1357 16.7501 16.725 18.1563 14.9909 18.1563H4.99468C3.2606 18.1563 1.84989 16.7501 1.84989 15.022V8.53486H5.80147C5.51298 9.14506 5.35072 9.82577 5.35072 10.5436C5.35072 13.151 7.47899 15.2719 10.095 15.2719C12.711 15.2719 14.8393 13.151 14.8393 10.5436C14.8393 9.82577 14.6771 9.14504 14.3885 8.53486H18.1357V15.022H18.1357ZM8.12556 10.5437C8.12556 9.46149 9.00904 8.5809 10.0951 8.5809C11.1811 8.5809 12.0645 9.46151 12.0645 10.5437C12.0645 11.6261 11.1811 12.5065 10.0951 12.5065C9.00906 12.5065 8.12556 11.6261 8.12556 10.5437ZM18.1357 6.69124H12.8406C12.0649 6.14067 11.1177 5.81542 10.0951 5.81542C9.07238 5.81542 8.12512 6.14067 7.34958 6.69124H1.84989V4.97787C1.84989 3.24962 3.2606 1.84366 4.99468 1.84366H14.9909C16.725 1.84366 18.1357 3.24962 18.1357 4.97787V6.69124H18.1357H18.1357ZM16.1312 2.96181H14.4164C14.1111 2.96181 13.8615 3.21071 13.8615 3.5149V5.22397C13.8615 5.52813 14.1111 5.77706 14.4164 5.77706H16.1312C16.4365 5.77706 16.6861 5.52813 16.6861 5.22397V3.5149C16.6861 3.21071 16.4365 2.96181 16.1312 2.96181Z" fill="white"/>
</svg>
